<svg width="30" height="30" viewBox="0 0 30 30" fill="none" xmlns="http://www.w3.org/2000/svg">
<path d="M19 29.6667H16.3333V27H19V29.6667ZM24.3333 27H21.6666V29.6667H24.3333V27ZM19 21.6667H16.3333V24.3334H19V21.6667ZM8.33331 27H5.66665V29.6667H8.33331V27ZM8.33331 21.6667H5.66665V24.3334H8.33331V21.6667ZM24.3333 21.6667H21.6666V24.3334H24.3333V21.6667ZM19 16.3334H16.3333V19H19V16.3334ZM24.3333 16.3334H21.6666V19H24.3333V16.3334ZM27 11C27.7072 11 28.3855 11.281 28.8856 11.7811C29.3857 12.2812 29.6666 12.9595 29.6666 13.6667V29.6667H27V13.6667H13.6666V29.6667H11V19H2.99998V29.6667H0.333313V19C0.333313 18.2928 0.614265 17.6145 1.11436 17.1144C1.61446 16.6143 2.29274 16.3334 2.99998 16.3334H11V13.6667C11 12.9595 11.2809 12.2812 11.781 11.7811C12.2811 11.281 12.9594 11 13.6666 11V8.33337C13.6666 7.62613 13.9476 6.94785 14.4477 6.44776C14.9478 5.94766 15.6261 5.66671 16.3333 5.66671H19V0.333374H21.6666V5.66671H24.3333C25.0406 5.66671 25.7188 5.94766 26.2189 6.44776C26.719 6.94785 27 7.62613 27 8.33337V11ZM24.3333 11V8.33337H16.3333V11H24.3333Z" fill="black"/>
</svg>
