<svg width="22" height="11" viewBox="0 0 22 11" fill="none" xmlns="http://www.w3.org/2000/svg">
<path d="M20.975 7.075C21.0738 7.24607 21.1257 7.44014 21.1257 7.63768C21.1257 7.83522 21.0736 8.02926 20.9748 8.20031C20.876 8.37135 20.7339 8.51336 20.5627 8.61204C20.3916 8.71073 20.1975 8.76262 20 8.7625C19.802 8.76457 19.6071 8.71346 19.4356 8.61452C19.2641 8.51558 19.1223 8.37243 19.025 8.2L17.4969 5.55625C16.6363 6.09481 15.7099 6.52019 14.7406 6.82187L15.2281 9.57812C15.2551 9.7235 15.2529 9.87279 15.2216 10.0173C15.1904 10.1618 15.1307 10.2987 15.0461 10.4199C14.9615 10.5412 14.8536 10.6444 14.7287 10.7236C14.6039 10.8028 14.4645 10.8564 14.3187 10.8812L14.1219 10.9C13.8579 10.8997 13.6024 10.8065 13.4002 10.6368C13.1979 10.4672 13.0618 10.2318 13.0156 9.97187L12.5375 7.28125C12.0276 7.34659 11.514 7.37791 11 7.375C10.483 7.37292 9.96657 7.34162 9.45312 7.28125L8.975 9.97187C8.9288 10.2318 8.79267 10.4672 8.59043 10.6368C8.3882 10.8065 8.13273 10.8997 7.86874 10.9L7.67187 10.8812C7.52612 10.8564 7.38676 10.8028 7.2619 10.7236C7.13703 10.6444 7.02916 10.5412 6.94454 10.4199C6.85993 10.2987 6.80026 10.1618 6.76901 10.0173C6.73775 9.87279 6.73554 9.7235 6.7625 9.57812L7.25 6.82187C6.28366 6.52012 5.36038 6.09472 4.50312 5.55625L2.96562 8.21875C2.8661 8.38924 2.72381 8.53081 2.55281 8.62946C2.38181 8.72811 2.18803 8.78043 1.99062 8.78125C1.79303 8.78282 1.59869 8.731 1.42812 8.63124C1.30002 8.55744 1.18772 8.4591 1.09765 8.34187C1.00758 8.22463 0.941504 8.09079 0.903193 7.94799C0.864883 7.8052 0.855094 7.65626 0.874385 7.50968C0.893676 7.3631 0.941669 7.22176 1.01562 7.09375L2.69375 4.1875C2.12588 3.68304 1.60211 3.13103 1.12812 2.5375C1.02456 2.42438 0.945224 2.29128 0.894983 2.14638C0.844741 2.00148 0.824656 1.84784 0.835962 1.6949C0.847268 1.54195 0.889726 1.39294 0.960727 1.257C1.03173 1.12106 1.12977 1.00108 1.24884 0.904417C1.3679 0.807756 1.50548 0.73646 1.6531 0.694909C1.80073 0.653358 1.95529 0.64243 2.10729 0.662795C2.2593 0.683161 2.40553 0.73439 2.53701 0.813336C2.6685 0.892282 2.78245 0.997277 2.87187 1.12187C4.35312 2.95 6.95937 5.125 11 5.125C15.0406 5.125 17.6469 2.95 19.1281 1.12187C19.2175 0.997277 19.3315 0.892282 19.463 0.813336C19.5945 0.73439 19.7407 0.683161 19.8927 0.662795C20.0447 0.64243 20.1993 0.653358 20.3469 0.694909C20.4945 0.73646 20.6321 0.807756 20.7512 0.904417C20.8702 1.00108 20.9683 1.12106 21.0393 1.257C21.1103 1.39294 21.1527 1.54195 21.164 1.6949C21.1753 1.84784 21.1553 2.00148 21.105 2.14638C21.0548 2.29128 20.9754 2.42438 20.8719 2.5375C20.3957 3.13203 19.8721 3.68697 19.3062 4.19687L20.975 7.075Z" fill="black"/>
</svg>
